<mxfile host="app.diagrams.net" agent="Mozilla/5.0 (Windows NT 10.0; Win64; x64) AppleWebKit/537.36 (KHTML, like Gecko) Chrome/129.0.0.0 Safari/537.36" version="24.7.17">
  <diagram name="Page-1" id="TXBpg5y0O-2-4bZ4PZil">
    <mxGraphModel grid="1" page="1" gridSize="10" guides="1" tooltips="1" connect="1" arrows="1" fold="1" pageScale="1" pageWidth="850" pageHeight="1100" math="0" shadow="0">
      <root>
        <mxCell id="0" />
        <mxCell id="1" parent="0" />
        <mxCell id="D15dmMXubXHHlc_0etbk-7" value="farmer" style="html=1;dashed=0;whiteSpace=wrap;shape=mxgraph.dfd.externalEntity" vertex="1" parent="1">
          <mxGeometry x="40" y="10" width="100" height="100" as="geometry" />
        </mxCell>
        <mxCell id="D15dmMXubXHHlc_0etbk-8" value="Id" style="autosize=1;part=1;resizable=0;strokeColor=inherit;fillColor=inherit;gradientColor=inherit;" vertex="1" parent="D15dmMXubXHHlc_0etbk-7">
          <mxGeometry width="20" height="20" relative="1" as="geometry">
            <mxPoint x="15" y="15" as="offset" />
          </mxGeometry>
        </mxCell>
        <mxCell id="D15dmMXubXHHlc_0etbk-9" value="capturing data" style="shape=ellipse;html=1;dashed=0;whiteSpace=wrap;perimeter=ellipsePerimeter;" vertex="1" parent="1">
          <mxGeometry x="290" y="70" width="140" height="70" as="geometry" />
        </mxCell>
        <mxCell id="D15dmMXubXHHlc_0etbk-10" value="Detecting crop disease" style="shape=ellipse;html=1;dashed=0;whiteSpace=wrap;perimeter=ellipsePerimeter;" vertex="1" parent="1">
          <mxGeometry x="560" y="230" width="100" height="50" as="geometry" />
        </mxCell>
        <mxCell id="D15dmMXubXHHlc_0etbk-11" value="view submission" style="shape=parallelogram;perimeter=parallelogramPerimeter;whiteSpace=wrap;html=1;dashed=0;" vertex="1" parent="1">
          <mxGeometry x="200" y="210" width="150" height="80" as="geometry" />
        </mxCell>
        <mxCell id="D15dmMXubXHHlc_0etbk-12" value="end" style="html=1;dashed=0;whiteSpace=wrap;shape=mxgraph.dfd.start" vertex="1" parent="1">
          <mxGeometry x="640" y="375" width="120" height="50" as="geometry" />
        </mxCell>
        <mxCell id="D15dmMXubXHHlc_0etbk-13" value="" style="endArrow=classic;html=1;rounded=0;entryX=0.673;entryY=-0.025;entryDx=0;entryDy=0;entryPerimeter=0;exitX=0.5;exitY=1;exitDx=0;exitDy=0;" edge="1" parent="1" source="D15dmMXubXHHlc_0etbk-9" target="D15dmMXubXHHlc_0etbk-11">
          <mxGeometry width="50" height="50" relative="1" as="geometry">
            <mxPoint x="400" y="280" as="sourcePoint" />
            <mxPoint x="450" y="230" as="targetPoint" />
          </mxGeometry>
        </mxCell>
        <mxCell id="D15dmMXubXHHlc_0etbk-22" value="compiling input" style="edgeLabel;html=1;align=center;verticalAlign=middle;resizable=0;points=[];" connectable="0" vertex="1" parent="D15dmMXubXHHlc_0etbk-13">
          <mxGeometry x="-0.2247" y="3" relative="1" as="geometry">
            <mxPoint as="offset" />
          </mxGeometry>
        </mxCell>
        <mxCell id="D15dmMXubXHHlc_0etbk-14" value="" style="endArrow=classic;html=1;rounded=0;exitX=0.44;exitY=1;exitDx=0;exitDy=0;exitPerimeter=0;" edge="1" parent="1">
          <mxGeometry width="50" height="50" relative="1" as="geometry">
            <mxPoint x="594" y="280" as="sourcePoint" />
            <mxPoint x="380" y="400" as="targetPoint" />
          </mxGeometry>
        </mxCell>
        <mxCell id="D15dmMXubXHHlc_0etbk-21" value="compiling results" style="edgeLabel;html=1;align=center;verticalAlign=middle;resizable=0;points=[];" connectable="0" vertex="1" parent="D15dmMXubXHHlc_0etbk-14">
          <mxGeometry x="-0.2882" relative="1" as="geometry">
            <mxPoint as="offset" />
          </mxGeometry>
        </mxCell>
        <mxCell id="D15dmMXubXHHlc_0etbk-15" value="" style="endArrow=classic;html=1;rounded=0;exitX=0.893;exitY=0.613;exitDx=0;exitDy=0;exitPerimeter=0;" edge="1" parent="1" source="D15dmMXubXHHlc_0etbk-11" target="D15dmMXubXHHlc_0etbk-10">
          <mxGeometry width="50" height="50" relative="1" as="geometry">
            <mxPoint x="420" y="300" as="sourcePoint" />
            <mxPoint x="470" y="250" as="targetPoint" />
          </mxGeometry>
        </mxCell>
        <mxCell id="D15dmMXubXHHlc_0etbk-23" value="sending request to server" style="edgeLabel;html=1;align=center;verticalAlign=middle;resizable=0;points=[];" connectable="0" vertex="1" parent="D15dmMXubXHHlc_0etbk-15">
          <mxGeometry x="-0.1239" y="-1" relative="1" as="geometry">
            <mxPoint as="offset" />
          </mxGeometry>
        </mxCell>
        <mxCell id="D15dmMXubXHHlc_0etbk-16" value="" style="endArrow=classic;html=1;rounded=0;entryX=0;entryY=0.5;entryDx=0;entryDy=0;exitX=1.03;exitY=0.49;exitDx=0;exitDy=0;exitPerimeter=0;" edge="1" parent="1" source="D15dmMXubXHHlc_0etbk-7" target="D15dmMXubXHHlc_0etbk-9">
          <mxGeometry width="50" height="50" relative="1" as="geometry">
            <mxPoint x="430" y="310" as="sourcePoint" />
            <mxPoint x="480" y="260" as="targetPoint" />
          </mxGeometry>
        </mxCell>
        <mxCell id="D15dmMXubXHHlc_0etbk-17" value="data input" style="text;html=1;align=center;verticalAlign=middle;resizable=0;points=[];autosize=1;strokeColor=none;fillColor=none;" vertex="1" parent="1">
          <mxGeometry x="160" y="58" width="80" height="30" as="geometry" />
        </mxCell>
        <mxCell id="D15dmMXubXHHlc_0etbk-18" value="giving feedback" style="shape=parallelogram;perimeter=parallelogramPerimeter;whiteSpace=wrap;html=1;dashed=0;" vertex="1" parent="1">
          <mxGeometry x="250" y="370" width="150" height="80" as="geometry" />
        </mxCell>
        <mxCell id="D15dmMXubXHHlc_0etbk-19" value="storing search&amp;nbsp;" style="shape=ellipse;html=1;dashed=0;whiteSpace=wrap;perimeter=ellipsePerimeter;" vertex="1" parent="1">
          <mxGeometry x="490" y="425" width="100" height="50" as="geometry" />
        </mxCell>
        <mxCell id="D15dmMXubXHHlc_0etbk-20" value="" style="endArrow=classic;html=1;rounded=0;exitX=1;exitY=0.75;exitDx=0;exitDy=0;entryX=0.07;entryY=0.28;entryDx=0;entryDy=0;entryPerimeter=0;" edge="1" parent="1" source="D15dmMXubXHHlc_0etbk-18" target="D15dmMXubXHHlc_0etbk-19">
          <mxGeometry width="50" height="50" relative="1" as="geometry">
            <mxPoint x="647" y="330" as="sourcePoint" />
            <mxPoint x="433" y="450" as="targetPoint" />
          </mxGeometry>
        </mxCell>
        <mxCell id="D15dmMXubXHHlc_0etbk-24" value="" style="endArrow=classic;html=1;rounded=0;entryX=0.017;entryY=0.36;entryDx=0;entryDy=0;entryPerimeter=0;" edge="1" parent="1" source="D15dmMXubXHHlc_0etbk-19" target="D15dmMXubXHHlc_0etbk-12">
          <mxGeometry width="50" height="50" relative="1" as="geometry">
            <mxPoint x="400" y="280" as="sourcePoint" />
            <mxPoint x="450" y="230" as="targetPoint" />
          </mxGeometry>
        </mxCell>
        <mxCell id="D15dmMXubXHHlc_0etbk-25" value="" style="endArrow=classic;html=1;rounded=0;entryX=0;entryY=0.5;entryDx=0;entryDy=0;exitX=0.27;exitY=1.04;exitDx=0;exitDy=0;exitPerimeter=0;" edge="1" parent="1" source="D15dmMXubXHHlc_0etbk-7" target="D15dmMXubXHHlc_0etbk-18">
          <mxGeometry width="50" height="50" relative="1" as="geometry">
            <mxPoint x="140" y="470" as="sourcePoint" />
            <mxPoint x="450" y="230" as="targetPoint" />
            <Array as="points">
              <mxPoint x="30" y="310" />
            </Array>
          </mxGeometry>
        </mxCell>
        <mxCell id="D15dmMXubXHHlc_0etbk-26" value="viewing feedback" style="edgeLabel;html=1;align=center;verticalAlign=middle;resizable=0;points=[];" connectable="0" vertex="1" parent="D15dmMXubXHHlc_0etbk-25">
          <mxGeometry x="0.1483" relative="1" as="geometry">
            <mxPoint as="offset" />
          </mxGeometry>
        </mxCell>
      </root>
    </mxGraphModel>
  </diagram>
</mxfile>
